<mxfile host="app.diagrams.net" modified="2023-08-24T07:44:18.143Z" agent="Mozilla/5.0 (Macintosh; Intel Mac OS X 10_15_7) AppleWebKit/537.36 (KHTML, like Gecko) Chrome/115.0.0.0 Safari/537.36" version="21.6.2" etag="OoIhFYk6B5OAWxmrcEwj" type="github">
  <diagram name="第 1 页" id="3Z1e6h2pDKjKwEbzN9B4">
    <mxGraphModel>
      <root>
        <mxCell id="0" />
        <mxCell id="1" parent="0" />
      </root>
    </mxGraphModel>
  </diagram>
</mxfile>
